<mxfile host="app.diagrams.net" modified="2023-09-16T07:06:47.599Z" agent="Mozilla/5.0 (Windows NT 10.0; Win64; x64; rv:109.0) Gecko/20100101 Firefox/117.0" etag="7fjzxiN5ilrX9JjLVdDx" version="21.7.5" type="device">
  <diagram name="Страница — 1" id="S2aeIrMrt7Ift_pavzAS">
    <mxGraphModel dx="1434" dy="746" grid="1" gridSize="10" guides="1" tooltips="1" connect="1" arrows="1" fold="1" page="1" pageScale="1" pageWidth="827" pageHeight="1169" math="0" shadow="0">
      <root>
        <mxCell id="0" />
        <mxCell id="1" parent="0" />
        <mxCell id="BTEZQnhJQ0ps4WyGpydR-1" value="Class Animals" style="swimlane;whiteSpace=wrap;html=1;" vertex="1" parent="1">
          <mxGeometry x="190" y="20" width="200" height="60" as="geometry" />
        </mxCell>
        <mxCell id="BTEZQnhJQ0ps4WyGpydR-4" style="edgeStyle=orthogonalEdgeStyle;rounded=0;orthogonalLoop=1;jettySize=auto;html=1;entryX=0.75;entryY=1;entryDx=0;entryDy=0;" edge="1" parent="1" source="BTEZQnhJQ0ps4WyGpydR-2" target="BTEZQnhJQ0ps4WyGpydR-1">
          <mxGeometry relative="1" as="geometry" />
        </mxCell>
        <mxCell id="BTEZQnhJQ0ps4WyGpydR-7" value="Extends" style="edgeLabel;html=1;align=center;verticalAlign=middle;resizable=0;points=[];" vertex="1" connectable="0" parent="BTEZQnhJQ0ps4WyGpydR-4">
          <mxGeometry x="-0.0125" y="-1" relative="1" as="geometry">
            <mxPoint as="offset" />
          </mxGeometry>
        </mxCell>
        <mxCell id="BTEZQnhJQ0ps4WyGpydR-2" value="pack_Animals" style="swimlane;whiteSpace=wrap;html=1;" vertex="1" parent="1">
          <mxGeometry x="300" y="150" width="230" height="90" as="geometry" />
        </mxCell>
        <mxCell id="BTEZQnhJQ0ps4WyGpydR-5" style="edgeStyle=orthogonalEdgeStyle;rounded=0;orthogonalLoop=1;jettySize=auto;html=1;entryX=0.25;entryY=1;entryDx=0;entryDy=0;" edge="1" parent="1" source="BTEZQnhJQ0ps4WyGpydR-3" target="BTEZQnhJQ0ps4WyGpydR-1">
          <mxGeometry relative="1" as="geometry" />
        </mxCell>
        <mxCell id="BTEZQnhJQ0ps4WyGpydR-6" value="Extends" style="edgeLabel;html=1;align=center;verticalAlign=middle;resizable=0;points=[];" vertex="1" connectable="0" parent="BTEZQnhJQ0ps4WyGpydR-5">
          <mxGeometry x="-0.0222" y="-1" relative="1" as="geometry">
            <mxPoint as="offset" />
          </mxGeometry>
        </mxCell>
        <mxCell id="BTEZQnhJQ0ps4WyGpydR-3" value="home_Animals" style="swimlane;whiteSpace=wrap;html=1;" vertex="1" parent="1">
          <mxGeometry x="30" y="150" width="210" height="90" as="geometry" />
        </mxCell>
        <mxCell id="BTEZQnhJQ0ps4WyGpydR-13" style="edgeStyle=orthogonalEdgeStyle;rounded=0;orthogonalLoop=1;jettySize=auto;html=1;" edge="1" parent="1" source="BTEZQnhJQ0ps4WyGpydR-8">
          <mxGeometry relative="1" as="geometry">
            <mxPoint x="170" y="240" as="targetPoint" />
            <Array as="points">
              <mxPoint x="250" y="266" />
              <mxPoint x="171" y="266" />
            </Array>
          </mxGeometry>
        </mxCell>
        <mxCell id="BTEZQnhJQ0ps4WyGpydR-20" value="Extends" style="edgeLabel;html=1;align=center;verticalAlign=middle;resizable=0;points=[];" vertex="1" connectable="0" parent="BTEZQnhJQ0ps4WyGpydR-13">
          <mxGeometry x="-0.1784" y="-2" relative="1" as="geometry">
            <mxPoint as="offset" />
          </mxGeometry>
        </mxCell>
        <mxCell id="BTEZQnhJQ0ps4WyGpydR-8" value="cats" style="swimlane;whiteSpace=wrap;html=1;" vertex="1" parent="1">
          <mxGeometry x="170" y="290" width="90" height="70" as="geometry" />
        </mxCell>
        <mxCell id="BTEZQnhJQ0ps4WyGpydR-12" style="edgeStyle=orthogonalEdgeStyle;rounded=0;orthogonalLoop=1;jettySize=auto;html=1;" edge="1" parent="1" source="BTEZQnhJQ0ps4WyGpydR-9">
          <mxGeometry relative="1" as="geometry">
            <mxPoint x="110" y="240" as="targetPoint" />
            <Array as="points">
              <mxPoint x="40" y="265" />
              <mxPoint x="110" y="265" />
              <mxPoint x="110" y="240" />
            </Array>
          </mxGeometry>
        </mxCell>
        <mxCell id="BTEZQnhJQ0ps4WyGpydR-19" value="Extends" style="edgeLabel;html=1;align=center;verticalAlign=middle;resizable=0;points=[];" vertex="1" connectable="0" parent="BTEZQnhJQ0ps4WyGpydR-12">
          <mxGeometry x="0.05" y="2" relative="1" as="geometry">
            <mxPoint as="offset" />
          </mxGeometry>
        </mxCell>
        <mxCell id="BTEZQnhJQ0ps4WyGpydR-9" value="dogs" style="swimlane;whiteSpace=wrap;html=1;" vertex="1" parent="1">
          <mxGeometry x="20" y="290" width="90" height="70" as="geometry" />
        </mxCell>
        <mxCell id="BTEZQnhJQ0ps4WyGpydR-14" style="edgeStyle=orthogonalEdgeStyle;rounded=0;orthogonalLoop=1;jettySize=auto;html=1;" edge="1" parent="1" source="BTEZQnhJQ0ps4WyGpydR-10">
          <mxGeometry relative="1" as="geometry">
            <mxPoint x="150" y="240" as="targetPoint" />
          </mxGeometry>
        </mxCell>
        <mxCell id="BTEZQnhJQ0ps4WyGpydR-21" value="Extends" style="edgeLabel;html=1;align=center;verticalAlign=middle;resizable=0;points=[];" vertex="1" connectable="0" parent="BTEZQnhJQ0ps4WyGpydR-14">
          <mxGeometry x="-0.2773" y="2" relative="1" as="geometry">
            <mxPoint as="offset" />
          </mxGeometry>
        </mxCell>
        <mxCell id="BTEZQnhJQ0ps4WyGpydR-10" value="hamsters" style="swimlane;whiteSpace=wrap;html=1;direction=east;" vertex="1" parent="1">
          <mxGeometry x="110" y="380" width="80" height="60" as="geometry" />
        </mxCell>
        <mxCell id="BTEZQnhJQ0ps4WyGpydR-25" style="edgeStyle=orthogonalEdgeStyle;rounded=0;orthogonalLoop=1;jettySize=auto;html=1;" edge="1" parent="1" source="BTEZQnhJQ0ps4WyGpydR-22">
          <mxGeometry relative="1" as="geometry">
            <mxPoint x="380" y="240" as="targetPoint" />
          </mxGeometry>
        </mxCell>
        <mxCell id="BTEZQnhJQ0ps4WyGpydR-26" value="Extends" style="edgeLabel;html=1;align=center;verticalAlign=middle;resizable=0;points=[];" vertex="1" connectable="0" parent="BTEZQnhJQ0ps4WyGpydR-25">
          <mxGeometry x="-0.0053" y="2" relative="1" as="geometry">
            <mxPoint x="1" y="1" as="offset" />
          </mxGeometry>
        </mxCell>
        <mxCell id="BTEZQnhJQ0ps4WyGpydR-22" value="Horses" style="swimlane;whiteSpace=wrap;html=1;" vertex="1" parent="1">
          <mxGeometry x="290" y="290" width="90" height="70" as="geometry" />
        </mxCell>
        <mxCell id="BTEZQnhJQ0ps4WyGpydR-27" style="edgeStyle=orthogonalEdgeStyle;rounded=0;orthogonalLoop=1;jettySize=auto;html=1;" edge="1" parent="1" source="BTEZQnhJQ0ps4WyGpydR-23">
          <mxGeometry relative="1" as="geometry">
            <mxPoint x="440" y="240" as="targetPoint" />
            <Array as="points">
              <mxPoint x="500" y="266" />
              <mxPoint x="441" y="266" />
            </Array>
          </mxGeometry>
        </mxCell>
        <mxCell id="BTEZQnhJQ0ps4WyGpydR-28" value="Extends" style="edgeLabel;html=1;align=center;verticalAlign=middle;resizable=0;points=[];" vertex="1" connectable="0" parent="BTEZQnhJQ0ps4WyGpydR-27">
          <mxGeometry x="0.0614" y="-2" relative="1" as="geometry">
            <mxPoint x="1" as="offset" />
          </mxGeometry>
        </mxCell>
        <mxCell id="BTEZQnhJQ0ps4WyGpydR-23" value="Camels" style="swimlane;whiteSpace=wrap;html=1;" vertex="1" parent="1">
          <mxGeometry x="430" y="290" width="100" height="70" as="geometry" />
        </mxCell>
        <mxCell id="BTEZQnhJQ0ps4WyGpydR-29" style="edgeStyle=orthogonalEdgeStyle;rounded=0;orthogonalLoop=1;jettySize=auto;html=1;" edge="1" parent="1" source="BTEZQnhJQ0ps4WyGpydR-24">
          <mxGeometry relative="1" as="geometry">
            <mxPoint x="405" y="240" as="targetPoint" />
          </mxGeometry>
        </mxCell>
        <mxCell id="BTEZQnhJQ0ps4WyGpydR-30" value="Extends" style="edgeLabel;html=1;align=center;verticalAlign=middle;resizable=0;points=[];" vertex="1" connectable="0" parent="BTEZQnhJQ0ps4WyGpydR-29">
          <mxGeometry x="0.0449" y="2" relative="1" as="geometry">
            <mxPoint as="offset" />
          </mxGeometry>
        </mxCell>
        <mxCell id="BTEZQnhJQ0ps4WyGpydR-24" value="Donkeys" style="swimlane;whiteSpace=wrap;html=1;" vertex="1" parent="1">
          <mxGeometry x="350" y="385" width="110" height="55" as="geometry" />
        </mxCell>
      </root>
    </mxGraphModel>
  </diagram>
</mxfile>
